<?xml version="1.0" encoding="UTF-8" standalone="no" ?>
<!DOCTYPE svg PUBLIC "-//W3C//DTD SVG 1.1//EN" "http://www.w3.org/Graphics/SVG/1.1/DTD/svg11.dtd">
<svg xmlns="http://www.w3.org/2000/svg" xmlns:xlink="http://www.w3.org/1999/xlink" version="1.1" width="1920" height="1080" viewBox="-64.55 -26.36 1920 1080" xml:space="preserve">
<desc>Created with Fabric.js 5.2.4</desc>
<defs>
</defs>
<rect x="0" y="0" width="100%" height="100%" fill="transparent"></rect>
<g transform="matrix(1 0 0 1 960 540)" id="542e31f9-83f9-4219-a11b-00fb861f13e7"  >
<rect style="stroke: none; stroke-width: 1; stroke-dasharray: none; stroke-linecap: butt; stroke-dashoffset: 0; stroke-linejoin: miter; stroke-miterlimit: 4; fill: rgb(255,255,255); fill-rule: nonzero; opacity: 1; visibility: hidden;" vector-effect="non-scaling-stroke"  x="-960" y="-540" rx="0" ry="0" width="1920" height="1080" />
</g>
<g transform="matrix(Infinity NaN NaN Infinity 0 0)" id="7a0c36a7-24a4-4786-94ca-b2124684992d"  >
</g>
<g transform="matrix(NaN NaN NaN NaN 0 0)"  >
<g style=""   >
</g>
</g>
<g transform="matrix(1.62 0 0 1.62 849.61 603.64)"  >
<g style=""   >
		<g transform="matrix(1 0 0 1 66.12 176.38)"  >
<path style="stroke: none; stroke-width: 1; stroke-dasharray: none; stroke-linecap: butt; stroke-dashoffset: 0; stroke-linejoin: miter; stroke-miterlimit: 4; fill: rgb(0,0,0); fill-rule: nonzero; opacity: 1;" vector-effect="non-scaling-stroke"  transform=" translate(-706.62, -650.77)" d="M 1281 718 L 1281 778 L 142.1 778 L 132.23 709.9 C 132.23 709.9 134.48 706.79 138.51999999999998 701.49 C 161.96999999999997 670.76 245.81 566.49 301.33 570.49 C 366.41999999999996 575.13 401.33 653.82 445.33 653.82 C 489.33 653.82 638.8 517.39 714.71 523.75 C 790.6200000000001 530.11 849.85 684.34 950.44 688.34 C 1051.0300000000002 692.34 1079.44 637.59 1120.8700000000001 637.59 C 1150.71 637.59 1178.2700000000002 681.21 1214.95 703.87 C 1229.17 712.66 1244.78 718.29 1262.42 716.99 C 1268.630092349311 716.4562261364596 1274.884361059119 716.7962052213308 1281 718 Z" stroke-linecap="round" />
</g>
		<g transform="matrix(1 0 0 1 46.01 -235.56)"  >
<polygon style="stroke: none; stroke-width: 1; stroke-dasharray: none; stroke-linecap: butt; stroke-dashoffset: 0; stroke-linejoin: miter; stroke-miterlimit: 4; fill: rgb(0,0,0); fill-rule: nonzero; opacity: 1;" vector-effect="non-scaling-stroke"  points="12.51,-21.56 -12.51,21.56 -12.51,15.23 12.51,-21.56 " />
</g>
		<g transform="matrix(1 0 0 1 33.26 -47.64)"  >
<polygon style="stroke: none; stroke-width: 1; stroke-dasharray: none; stroke-linecap: butt; stroke-dashoffset: 0; stroke-linejoin: miter; stroke-miterlimit: 4; fill: rgb(0,0,0); fill-rule: nonzero; opacity: 1;" vector-effect="non-scaling-stroke"  points="-6.37,-83.73 -6.63,-153 -34.38,-213.69 -6.64,-160.47 -6.91,-231.75 -6.91,-231.75 -7.24,-231.75 -7.1,-232.06 -32.64,-276.34 -5.25,-236.31 8.22,-267.33 -2.12,-231.75 3.73,-16.14 34.38,-90.56 4.12,-1.8 11.63,275.34 -5.03,276.34 -6.32,-73.63 -31.76,-120.2 -6.37,-83.73 " />
</g>
		<g transform="matrix(1 0 0 1 -346.01 -138.56)"  >
<polygon style="stroke: none; stroke-width: 1; stroke-dasharray: none; stroke-linecap: butt; stroke-dashoffset: 0; stroke-linejoin: miter; stroke-miterlimit: 4; fill: rgb(0,0,0); fill-rule: nonzero; opacity: 1;" vector-effect="non-scaling-stroke"  points="-12.51,-21.56 12.51,21.56 12.51,15.23 -12.51,-21.56 " />
</g>
		<g transform="matrix(1 0 0 1 -333.74 49.36)"  >
<polygon style="stroke: none; stroke-width: 1; stroke-dasharray: none; stroke-linecap: butt; stroke-dashoffset: 0; stroke-linejoin: miter; stroke-miterlimit: 4; fill: rgb(0,0,0); fill-rule: nonzero; opacity: 1;" vector-effect="non-scaling-stroke"  points="6.37,-83.73 6.63,-152.99 34.38,-213.69 6.66,-160.47 6.92,-231.74 6.92,-231.74 7.24,-231.74 7.1,-232.06 32.66,-276.34 5.25,-236.31 -8.21,-267.33 2.12,-231.75 -3.72,-16.14 -34.38,-90.55 -4.12,-1.79 -11.63,275.35 5.04,276.35 6.34,-73.62 31.78,-120.2 6.37,-83.73 " />
</g>
		<g transform="matrix(1 0 0 1 291.12 -97.83)"  >
<polygon style="stroke: none; stroke-width: 1; stroke-dasharray: none; stroke-linecap: butt; stroke-dashoffset: 0; stroke-linejoin: miter; stroke-miterlimit: 4; fill: rgb(0,0,0); fill-rule: nonzero; opacity: 1;" vector-effect="non-scaling-stroke"  points="-10.38,-21.38 10.38,21.38 10.38,15.1 -10.38,-21.38 " />
</g>
		<g transform="matrix(1 0 0 1 301.3 36.6)"  >
<polygon style="stroke: none; stroke-width: 1; stroke-dasharray: none; stroke-linecap: butt; stroke-dashoffset: 0; stroke-linejoin: miter; stroke-miterlimit: 4; fill: rgb(0,0,0); fill-rule: nonzero; opacity: 1;" vector-effect="non-scaling-stroke"  points="5.29,-31.15 5.5,-99.81 28.54,-159.97 5.25,-107.22 5.2,-177.75 5.2,-177.98 6.01,-177.98 5.89,-178.24 27.1,-222.1 4.36,-182.41 -6.81,-213.15 1.76,-177.88 -3.09,35.84 -28.54,-37.92 -3.41,50.06 -9.65,221.12 4.18,222.11 5.25,-21.14 26.37,-67.31 5.29,-31.15 " />
</g>
		<g transform="matrix(1 0 0 1 -182.94 -55.88)"  >
<polygon style="stroke: none; stroke-width: 1; stroke-dasharray: none; stroke-linecap: butt; stroke-dashoffset: 0; stroke-linejoin: miter; stroke-miterlimit: 4; fill: rgb(0,0,0); fill-rule: nonzero; opacity: 1;" vector-effect="non-scaling-stroke"  points="49.5,-59.06 -1.38,39.56 -6.58,-66.57 21.43,-96.05 -7.08,-76.72 -9.96,-135.34 26.87,-195.02 -10.34,-143.02 -13.18,-200.56 6.64,-256.54 -16.48,-207.32 -46.63,-269.83 -22.12,-200.92 -21.36,-167.33 -49.14,-187.28 -21.19,-159.87 -18.15,-25.73 -49.5,-75.04 -17.8,-9.66 -11.5,268.83 9.94,269.83 -0.46,58.1 49.5,-59.06 " />
</g>
		<g transform="matrix(1 0 0 1 237.13 68.98)"  >
<polygon style="stroke: none; stroke-width: 1; stroke-dasharray: none; stroke-linecap: butt; stroke-dashoffset: 0; stroke-linejoin: miter; stroke-miterlimit: 4; fill: rgb(0,0,0); fill-rule: nonzero; opacity: 1;" vector-effect="non-scaling-stroke"  points="37.87,-39.11 -1.05,26.19 -5.03,-44.07 16.38,-63.59 -5.42,-50.8 -7.63,-89.61 20.54,-129.12 -7.91,-94.68 -10.08,-132.78 5.09,-169.85 -12.6,-137.26 -35.66,-178.64 -16.91,-133.02 -16.34,-110.78 -37.59,-123.99 -16.21,-105.84 -13.88,-17.04 -37.87,-49.68 -13.61,-6.4 -8.79,177.98 7.6,178.64 -0.36,38.46 37.87,-39.11 " />
</g>
		<g transform="matrix(1 0 0 1 113.03 -23.36)"  >
<polygon style="stroke: none; stroke-width: 1; stroke-dasharray: none; stroke-linecap: butt; stroke-dashoffset: 0; stroke-linejoin: miter; stroke-miterlimit: 4; fill: rgb(0,0,0); fill-rule: nonzero; opacity: 1;" vector-effect="non-scaling-stroke"  points="7.08,-8.68 6.56,-153.05 52.45,-202.02 6.52,-162.37 6.38,-202.02 35.59,-256.98 4.91,-207.73 -16.73,-240.27 -0.91,-204.19 -2.31,-131.64 -38.07,-184.3 -2.59,-116.99 -3.77,-55.95 -38.07,-82.36 -3.95,-46.84 -6.01,60.14 -52.46,-15.04 -6.45,82.88 -9.82,256.98 8.03,256.98 7.13,5.97 38.75,-52.1 7.08,-8.68 " />
</g>
		<g transform="matrix(1 0 0 1 359.79 137.46)"  >
<polygon style="stroke: none; stroke-width: 1; stroke-dasharray: none; stroke-linecap: butt; stroke-dashoffset: 0; stroke-linejoin: miter; stroke-miterlimit: 4; fill: rgb(0,0,0); fill-rule: nonzero; opacity: 1;" vector-effect="non-scaling-stroke"  points="-4.37,-5.44 -4.04,-95.99 -32.31,-126.69 -4.02,-101.83 -3.93,-126.69 -21.92,-161.16 -3.02,-130.28 10.31,-150.69 0.56,-128.06 1.43,-82.56 23.46,-115.59 1.6,-73.38 2.33,-35.1 23.46,-51.66 2.43,-29.38 3.71,37.71 32.31,-9.44 3.98,51.97 6.05,161.16 -4.94,161.16 -4.39,3.75 -23.88,-32.68 -4.37,-5.44 " />
</g>
		<g transform="matrix(1 0 0 1 -261.23 20.88)"  >
<polygon style="stroke: none; stroke-width: 1; stroke-dasharray: none; stroke-linecap: butt; stroke-dashoffset: 0; stroke-linejoin: miter; stroke-miterlimit: 4; fill: rgb(0,0,0); fill-rule: nonzero; opacity: 1;" vector-effect="non-scaling-stroke"  points="-5.16,-6.57 -4.78,-111.91 -38.27,-147.64 -4.76,-118.71 -4.66,-147.64 -25.97,-187.74 -3.58,-151.8 12.21,-175.55 0.66,-149.23 1.68,-96.29 27.78,-134.71 1.89,-85.6 2.75,-41.06 27.78,-60.33 2.88,-34.41 4.39,43.64 38.28,-11.21 4.71,60.47 7.16,187.74 -5.86,187.74 -5.2,4.36 -28.28,-38.14 -5.16,-6.57 " />
</g>
		<g transform="matrix(1 0 0 1 0 261.34)"  >
<path style="stroke: none; stroke-width: 1; stroke-dasharray: none; stroke-linecap: butt; stroke-dashoffset: 0; stroke-linejoin: miter; stroke-miterlimit: 4; fill: rgb(0,0,0); fill-rule: nonzero; opacity: 1;" vector-effect="non-scaling-stroke"  transform=" translate(-640.5, -735.72)" d="M 0.12 733.22 C 0.12 733.22 186.34 683.65 331.92 672.87 C 477.5 662.09 788.9200000000001 716.16 1022.1400000000001 714.81 C 1255.3600000000001 713.4599999999999 1281 685.81 1281 685.81 L 1281 800 L 0 800 Z" stroke-linecap="round" />
</g>
</g>
</g>
</svg>